<svg width="142" height="31" viewBox="0 0 142 31" xmlns="http://www.w3.org/2000/svg"><title id="logoTitle">Belden</title><path d="M8.93 18.256l.633-.006c1.6-.017 3.593-.04 4.556.913.43.425.637 1.022.637 1.823 0 .697-.196 1.232-.598 1.632-1.032 1.032-3.213 1.028-4.804 1.025h-.73v-5.387h.305zm-.233-11.43c2.585 0 3.986.378 3.986 2.38 0 1.69-1.065 2.38-3.674 2.38h-.384v-4.76h.07zM.477 0H0v30.467h12.298c7.095 0 11.164-3.17 11.164-8.696 0-4.286-1.955-6.872-5.508-7.71 1.796-1.253 2.728-3.167 2.728-5.91 0-5.41-3.11-8.15-9.245-8.15H.477zm41.45 0h-17.27v30.467h17.748v-7.45h-9.12V18.88h8.65v-7.45h-8.65V7.45h9.12V0zm35.094 29.213c5.82-1.658 9.89-6.71 9.956-13.952v-.087c-.078-7.223-4.147-12.26-9.956-13.916 6.626 1.357 11.693 6.19 11.736 13.872v.153c-.018 7.716-5.093 12.57-11.736 13.93zm6.94-14.006c-.062-6.284-3.487-10.39-8.704-11.632 5.816.868 10.324 4.9 10.332 11.623v.02c-.008 6.72-4.544 10.726-10.36 11.593 5.218-1.24 8.67-5.318 8.733-11.603zM73.94 24.173c4.373-1.04 7.21-3.72 7.28-8.966-.07-5.243-2.907-7.924-7.28-8.964 4.88.728 8.727 3.312 8.746 8.944v.04c-.02 5.632-3.865 8.217-8.746 8.946zM72 7.47c4.748.1 7.695 3.046 7.695 7.762 0 4.764-2.876 7.63-7.694 7.758V7.47zM74.735 0H63.376v30.467h11.358c8.53 0 15.467-6.834 15.467-15.234S83.264 0 74.735 0zM52.22 0h-8.15v30.467h17.825v-7.45h-9.2V0zm56.956.002H91.908V30.47h17.745v-7.453h-9.122v-4.134h8.655v-7.45h-8.654v-3.98h9.123V.003zm32.21 0h-8.15v17.234c-1.38-1.776-13.42-17.234-13.42-17.234h-8.38V30.47h8.627V13.198A81697.69 81697.69 0 0 0 133.48 30.47h8.384V.002h-.478z" fill="#004990" fill-rule="evenodd"/></svg>